<mxfile host="Electron" modified="2023-11-06T15:29:53.760Z" agent="Mozilla/5.0 (Windows NT 10.0; Win64; x64) AppleWebKit/537.36 (KHTML, like Gecko) draw.io/22.0.3 Chrome/114.0.5735.289 Electron/25.8.4 Safari/537.36" etag="aw2H94vuAiZVlHVuA_5J" version="22.0.3" type="device">
  <diagram id="C5RBs43oDa-KdzZeNtuy" name="Page-1">
    <mxGraphModel dx="1036" dy="606" grid="1" gridSize="10" guides="1" tooltips="1" connect="1" arrows="1" fold="1" page="1" pageScale="1" pageWidth="827" pageHeight="1169" math="0" shadow="0">
      <root>
        <mxCell id="WIyWlLk6GJQsqaUBKTNV-0" />
        <mxCell id="WIyWlLk6GJQsqaUBKTNV-1" parent="WIyWlLk6GJQsqaUBKTNV-0" />
        <mxCell id="E8jJt5HHEnCwKzbaVch_-18" style="edgeStyle=orthogonalEdgeStyle;rounded=0;orthogonalLoop=1;jettySize=auto;html=1;exitX=0.5;exitY=1;exitDx=0;exitDy=0;" edge="1" parent="WIyWlLk6GJQsqaUBKTNV-1" target="E8jJt5HHEnCwKzbaVch_-16">
          <mxGeometry relative="1" as="geometry">
            <mxPoint x="270" y="600" as="targetPoint" />
            <mxPoint x="580" y="530" as="sourcePoint" />
            <Array as="points">
              <mxPoint x="580" y="600" />
              <mxPoint x="290" y="600" />
            </Array>
          </mxGeometry>
        </mxCell>
        <mxCell id="E8jJt5HHEnCwKzbaVch_-133" value="" style="edgeStyle=orthogonalEdgeStyle;rounded=0;orthogonalLoop=1;jettySize=auto;html=1;fontFamily=Helvetica;fontSize=12;fontColor=default;" edge="1" parent="WIyWlLk6GJQsqaUBKTNV-1" source="E8jJt5HHEnCwKzbaVch_-131">
          <mxGeometry relative="1" as="geometry">
            <mxPoint x="414" y="200" as="targetPoint" />
          </mxGeometry>
        </mxCell>
        <mxCell id="E8jJt5HHEnCwKzbaVch_-131" value="begin" style="ellipse;whiteSpace=wrap;html=1;strokeColor=default;align=center;verticalAlign=middle;fontFamily=Helvetica;fontSize=12;fontColor=default;fillColor=default;" vertex="1" parent="WIyWlLk6GJQsqaUBKTNV-1">
          <mxGeometry x="354" y="30" width="120" height="80" as="geometry" />
        </mxCell>
        <mxCell id="E8jJt5HHEnCwKzbaVch_-135" value="" style="edgeStyle=orthogonalEdgeStyle;rounded=0;orthogonalLoop=1;jettySize=auto;html=1;fontFamily=Helvetica;fontSize=12;fontColor=default;" edge="1" parent="WIyWlLk6GJQsqaUBKTNV-1" target="E8jJt5HHEnCwKzbaVch_-134">
          <mxGeometry relative="1" as="geometry">
            <mxPoint x="414" y="260" as="sourcePoint" />
          </mxGeometry>
        </mxCell>
        <mxCell id="E8jJt5HHEnCwKzbaVch_-136" style="edgeStyle=orthogonalEdgeStyle;rounded=0;orthogonalLoop=1;jettySize=auto;html=1;exitX=0.5;exitY=1;exitDx=0;exitDy=0;fontFamily=Helvetica;fontSize=12;fontColor=default;" edge="1" parent="WIyWlLk6GJQsqaUBKTNV-1" source="E8jJt5HHEnCwKzbaVch_-134">
          <mxGeometry relative="1" as="geometry">
            <mxPoint x="414" y="320" as="targetPoint" />
          </mxGeometry>
        </mxCell>
        <mxCell id="E8jJt5HHEnCwKzbaVch_-134" value="a,b,c" style="shape=parallelogram;perimeter=parallelogramPerimeter;whiteSpace=wrap;html=1;fixedSize=1;" vertex="1" parent="WIyWlLk6GJQsqaUBKTNV-1">
          <mxGeometry x="354" y="200" width="120" height="60" as="geometry" />
        </mxCell>
        <mxCell id="E8jJt5HHEnCwKzbaVch_-139" value="" style="edgeStyle=orthogonalEdgeStyle;rounded=0;orthogonalLoop=1;jettySize=auto;html=1;fontFamily=Helvetica;fontSize=12;fontColor=default;" edge="1" parent="WIyWlLk6GJQsqaUBKTNV-1" source="E8jJt5HHEnCwKzbaVch_-137" target="E8jJt5HHEnCwKzbaVch_-138">
          <mxGeometry relative="1" as="geometry" />
        </mxCell>
        <mxCell id="E8jJt5HHEnCwKzbaVch_-137" value="del = b^2-(4*a*c)" style="rounded=0;whiteSpace=wrap;html=1;strokeColor=default;align=center;verticalAlign=middle;fontFamily=Helvetica;fontSize=12;fontColor=default;fillColor=default;" vertex="1" parent="WIyWlLk6GJQsqaUBKTNV-1">
          <mxGeometry x="354" y="320" width="120" height="60" as="geometry" />
        </mxCell>
        <mxCell id="E8jJt5HHEnCwKzbaVch_-141" value="" style="edgeStyle=orthogonalEdgeStyle;rounded=0;orthogonalLoop=1;jettySize=auto;html=1;fontFamily=Helvetica;fontSize=12;fontColor=default;" edge="1" parent="WIyWlLk6GJQsqaUBKTNV-1" source="E8jJt5HHEnCwKzbaVch_-138" target="E8jJt5HHEnCwKzbaVch_-140">
          <mxGeometry relative="1" as="geometry" />
        </mxCell>
        <mxCell id="E8jJt5HHEnCwKzbaVch_-143" value="" style="edgeStyle=orthogonalEdgeStyle;rounded=0;orthogonalLoop=1;jettySize=auto;html=1;fontFamily=Helvetica;fontSize=12;fontColor=default;" edge="1" parent="WIyWlLk6GJQsqaUBKTNV-1" source="E8jJt5HHEnCwKzbaVch_-138" target="E8jJt5HHEnCwKzbaVch_-142">
          <mxGeometry relative="1" as="geometry" />
        </mxCell>
        <mxCell id="E8jJt5HHEnCwKzbaVch_-138" value="del&amp;lt;0" style="rhombus;whiteSpace=wrap;html=1;rounded=0;" vertex="1" parent="WIyWlLk6GJQsqaUBKTNV-1">
          <mxGeometry x="574" y="310" width="80" height="80" as="geometry" />
        </mxCell>
        <mxCell id="E8jJt5HHEnCwKzbaVch_-167" style="edgeStyle=orthogonalEdgeStyle;rounded=0;orthogonalLoop=1;jettySize=auto;html=1;exitX=1;exitY=0.5;exitDx=0;exitDy=0;fontFamily=Helvetica;fontSize=12;fontColor=default;entryX=0.803;entryY=0.943;entryDx=0;entryDy=0;entryPerimeter=0;" edge="1" parent="WIyWlLk6GJQsqaUBKTNV-1" source="E8jJt5HHEnCwKzbaVch_-140" target="E8jJt5HHEnCwKzbaVch_-164">
          <mxGeometry relative="1" as="geometry">
            <mxPoint x="870" y="820" as="targetPoint" />
            <Array as="points">
              <mxPoint x="1140" y="190" />
              <mxPoint x="1140" y="820" />
              <mxPoint x="866" y="820" />
            </Array>
          </mxGeometry>
        </mxCell>
        <mxCell id="E8jJt5HHEnCwKzbaVch_-140" value="vo nghiem" style="shape=parallelogram;perimeter=parallelogramPerimeter;whiteSpace=wrap;html=1;fixedSize=1;rounded=0;" vertex="1" parent="WIyWlLk6GJQsqaUBKTNV-1">
          <mxGeometry x="554" y="160" width="120" height="60" as="geometry" />
        </mxCell>
        <mxCell id="E8jJt5HHEnCwKzbaVch_-147" value="" style="edgeStyle=orthogonalEdgeStyle;rounded=0;orthogonalLoop=1;jettySize=auto;html=1;fontFamily=Helvetica;fontSize=12;fontColor=default;" edge="1" parent="WIyWlLk6GJQsqaUBKTNV-1" source="E8jJt5HHEnCwKzbaVch_-142">
          <mxGeometry relative="1" as="geometry">
            <mxPoint x="724" y="510" as="targetPoint" />
          </mxGeometry>
        </mxCell>
        <mxCell id="E8jJt5HHEnCwKzbaVch_-150" value="" style="edgeStyle=orthogonalEdgeStyle;rounded=0;orthogonalLoop=1;jettySize=auto;html=1;fontFamily=Helvetica;fontSize=12;fontColor=default;" edge="1" parent="WIyWlLk6GJQsqaUBKTNV-1" source="E8jJt5HHEnCwKzbaVch_-142">
          <mxGeometry relative="1" as="geometry">
            <mxPoint x="510" y="510" as="targetPoint" />
          </mxGeometry>
        </mxCell>
        <mxCell id="E8jJt5HHEnCwKzbaVch_-142" value="del=0" style="rhombus;whiteSpace=wrap;html=1;rounded=0;" vertex="1" parent="WIyWlLk6GJQsqaUBKTNV-1">
          <mxGeometry x="574" y="470" width="80" height="80" as="geometry" />
        </mxCell>
        <mxCell id="E8jJt5HHEnCwKzbaVch_-144" value="true" style="text;html=1;align=center;verticalAlign=middle;resizable=0;points=[];autosize=1;strokeColor=none;fillColor=none;fontSize=12;fontFamily=Helvetica;fontColor=default;" vertex="1" parent="WIyWlLk6GJQsqaUBKTNV-1">
          <mxGeometry x="600" y="248" width="40" height="30" as="geometry" />
        </mxCell>
        <mxCell id="E8jJt5HHEnCwKzbaVch_-145" value="false" style="text;html=1;align=center;verticalAlign=middle;resizable=0;points=[];autosize=1;strokeColor=none;fillColor=none;fontSize=12;fontFamily=Helvetica;fontColor=default;" vertex="1" parent="WIyWlLk6GJQsqaUBKTNV-1">
          <mxGeometry x="605" y="408" width="50" height="30" as="geometry" />
        </mxCell>
        <mxCell id="E8jJt5HHEnCwKzbaVch_-148" value="true" style="text;html=1;align=center;verticalAlign=middle;resizable=0;points=[];autosize=1;strokeColor=none;fillColor=none;fontSize=12;fontFamily=Helvetica;fontColor=default;" vertex="1" parent="WIyWlLk6GJQsqaUBKTNV-1">
          <mxGeometry x="660" y="478" width="40" height="30" as="geometry" />
        </mxCell>
        <mxCell id="E8jJt5HHEnCwKzbaVch_-156" value="" style="edgeStyle=orthogonalEdgeStyle;rounded=0;orthogonalLoop=1;jettySize=auto;html=1;fontFamily=Helvetica;fontSize=12;fontColor=default;" edge="1" parent="WIyWlLk6GJQsqaUBKTNV-1" target="E8jJt5HHEnCwKzbaVch_-155">
          <mxGeometry relative="1" as="geometry">
            <mxPoint x="470" y="550" as="sourcePoint" />
          </mxGeometry>
        </mxCell>
        <mxCell id="E8jJt5HHEnCwKzbaVch_-151" value="false" style="text;html=1;align=center;verticalAlign=middle;resizable=0;points=[];autosize=1;strokeColor=none;fillColor=none;fontSize=12;fontFamily=Helvetica;fontColor=default;" vertex="1" parent="WIyWlLk6GJQsqaUBKTNV-1">
          <mxGeometry x="535" y="478" width="50" height="30" as="geometry" />
        </mxCell>
        <mxCell id="E8jJt5HHEnCwKzbaVch_-154" value="" style="edgeStyle=orthogonalEdgeStyle;rounded=0;orthogonalLoop=1;jettySize=auto;html=1;fontFamily=Helvetica;fontSize=12;fontColor=default;" edge="1" parent="WIyWlLk6GJQsqaUBKTNV-1" source="E8jJt5HHEnCwKzbaVch_-152" target="E8jJt5HHEnCwKzbaVch_-153">
          <mxGeometry relative="1" as="geometry" />
        </mxCell>
        <mxCell id="E8jJt5HHEnCwKzbaVch_-152" value="-b/2a" style="rounded=0;whiteSpace=wrap;html=1;strokeColor=default;align=center;verticalAlign=middle;fontFamily=Helvetica;fontSize=12;fontColor=default;fillColor=default;" vertex="1" parent="WIyWlLk6GJQsqaUBKTNV-1">
          <mxGeometry x="720" y="480" width="120" height="60" as="geometry" />
        </mxCell>
        <mxCell id="E8jJt5HHEnCwKzbaVch_-166" style="edgeStyle=orthogonalEdgeStyle;rounded=0;orthogonalLoop=1;jettySize=auto;html=1;exitX=1;exitY=0.5;exitDx=0;exitDy=0;fontFamily=Helvetica;fontSize=12;fontColor=default;entryX=1;entryY=0.5;entryDx=0;entryDy=0;" edge="1" parent="WIyWlLk6GJQsqaUBKTNV-1" source="E8jJt5HHEnCwKzbaVch_-153" target="E8jJt5HHEnCwKzbaVch_-164">
          <mxGeometry relative="1" as="geometry">
            <mxPoint x="1080" y="770" as="targetPoint" />
            <Array as="points">
              <mxPoint x="1080" y="510" />
              <mxPoint x="1080" y="770" />
            </Array>
          </mxGeometry>
        </mxCell>
        <mxCell id="E8jJt5HHEnCwKzbaVch_-153" value="nghiem kep" style="shape=parallelogram;perimeter=parallelogramPerimeter;whiteSpace=wrap;html=1;fixedSize=1;rounded=0;" vertex="1" parent="WIyWlLk6GJQsqaUBKTNV-1">
          <mxGeometry x="920" y="480" width="120" height="60" as="geometry" />
        </mxCell>
        <mxCell id="E8jJt5HHEnCwKzbaVch_-160" value="" style="edgeStyle=orthogonalEdgeStyle;rounded=0;orthogonalLoop=1;jettySize=auto;html=1;fontFamily=Helvetica;fontSize=12;fontColor=default;" edge="1" parent="WIyWlLk6GJQsqaUBKTNV-1" source="E8jJt5HHEnCwKzbaVch_-155" target="E8jJt5HHEnCwKzbaVch_-159">
          <mxGeometry relative="1" as="geometry" />
        </mxCell>
        <mxCell id="E8jJt5HHEnCwKzbaVch_-155" value="x1= (-b- căn bậc hai del)/2a" style="whiteSpace=wrap;html=1;rounded=0;" vertex="1" parent="WIyWlLk6GJQsqaUBKTNV-1">
          <mxGeometry x="454" y="640" width="120" height="60" as="geometry" />
        </mxCell>
        <mxCell id="E8jJt5HHEnCwKzbaVch_-162" value="" style="edgeStyle=orthogonalEdgeStyle;rounded=0;orthogonalLoop=1;jettySize=auto;html=1;fontFamily=Helvetica;fontSize=12;fontColor=default;" edge="1" parent="WIyWlLk6GJQsqaUBKTNV-1" source="E8jJt5HHEnCwKzbaVch_-159" target="E8jJt5HHEnCwKzbaVch_-161">
          <mxGeometry relative="1" as="geometry" />
        </mxCell>
        <mxCell id="E8jJt5HHEnCwKzbaVch_-159" value="x2= (-b+ căn bậc hai del)/" style="whiteSpace=wrap;html=1;rounded=0;" vertex="1" parent="WIyWlLk6GJQsqaUBKTNV-1">
          <mxGeometry x="454" y="720" width="120" height="60" as="geometry" />
        </mxCell>
        <mxCell id="E8jJt5HHEnCwKzbaVch_-165" style="edgeStyle=orthogonalEdgeStyle;rounded=0;orthogonalLoop=1;jettySize=auto;html=1;exitX=1;exitY=0.5;exitDx=0;exitDy=0;entryX=0.5;entryY=1;entryDx=0;entryDy=0;fontFamily=Helvetica;fontSize=12;fontColor=default;" edge="1" parent="WIyWlLk6GJQsqaUBKTNV-1" source="E8jJt5HHEnCwKzbaVch_-161" target="E8jJt5HHEnCwKzbaVch_-164">
          <mxGeometry relative="1" as="geometry" />
        </mxCell>
        <mxCell id="E8jJt5HHEnCwKzbaVch_-161" value="hai nghiem phan biet" style="shape=parallelogram;perimeter=parallelogramPerimeter;whiteSpace=wrap;html=1;fixedSize=1;rounded=0;" vertex="1" parent="WIyWlLk6GJQsqaUBKTNV-1">
          <mxGeometry x="441" y="810" width="146" height="60" as="geometry" />
        </mxCell>
        <mxCell id="E8jJt5HHEnCwKzbaVch_-163" value="del&amp;gt;0" style="rounded=0;whiteSpace=wrap;html=1;strokeColor=default;align=center;verticalAlign=middle;fontFamily=Helvetica;fontSize=12;fontColor=default;fillColor=default;" vertex="1" parent="WIyWlLk6GJQsqaUBKTNV-1">
          <mxGeometry x="390" y="490" width="120" height="60" as="geometry" />
        </mxCell>
        <mxCell id="E8jJt5HHEnCwKzbaVch_-164" value="end" style="ellipse;whiteSpace=wrap;html=1;strokeColor=default;align=center;verticalAlign=middle;fontFamily=Helvetica;fontSize=12;fontColor=default;fillColor=default;" vertex="1" parent="WIyWlLk6GJQsqaUBKTNV-1">
          <mxGeometry x="770" y="730" width="120" height="80" as="geometry" />
        </mxCell>
      </root>
    </mxGraphModel>
  </diagram>
</mxfile>
